# AST/ASF file generated using VICON BodyLanguage
# -----------------------------------------------
:version 1.10
:name VICON
:units
  mass 1.0
  length 0.45
  angle deg
:documentation
   .ast/.asf automatically generated from VICON data using
   VICON BodyBuilder and BodyLanguage model FoxedUp or BRILLIANT.MOD
:root
   order TX TY TZ RX RY RZ
   axis XYZ
   position 0 0 0  
   orientation 0 -0 0 
:bonedata
  begin
     id 1 
     name lhipjoint
     direction 0.515797 -0.759363 0.396637 
     length 2.47888 
     axis 0 -0 0  XYZ
  end
  begin
     id 2 
     name lfemur
     direction 0.34202 -0.939693 0  
     length 6.81885  
     axis 0 -0 20  XYZ
    dof rx ry rz
    limits (-160.0 20.0)
           (-70.0 70.0)
           (-60.0 70.0)
  end
  begin
     id 3 
     name ltibia
     direction 0.342037 -0.939687 0   
     length 7.89258   
     axis 0 -0 20   XYZ
    dof rx
    limits (-10.0 170.0)
  end
  begin
     id 4 
     name lfoot
     direction 0.173497 -0.476678 0.861787   
     length 2.51543   
     axis -90 -1.13533e-015 20   XYZ
    dof rx rz
    limits (-45.0 90.0)
           (-70.0 20.0)
  end
  begin
     id 5 
     name ltoes
     direction 1.53564e-011 -4.21897e-011 1   
     length 1.21388   
     axis -90 -1.13533e-015 20   XYZ
    dof rx
    limits (-90.0 20.0)
  end
  begin
     id 6 
     name rhipjoint
     direction -0.489454 -0.772941 0.403729   
     length 2.43534  
     axis 0 -0 0  XYZ 
  end
  begin
     id 7 
     name rfemur
     direction -0.34202 -0.939693 0   
     length 7.10357   
     axis 0 -0 -20   XYZ
    dof rx ry rz
    limits (-160.0 20.0)
           (-70.0 70.0)
           (-70.0 60.0)
  end
  begin
     id 8 
     name rtibia
     direction -0.34202 -0.939693 0   
     length 9.16127   
     axis 0 -0 -20   XYZ
    dof rx
    limits (-10.0 170.0)
 end
 begin
     id 9 
     name rfoot
     direction -0.270974 -0.748671 0.605033   
     length 1.74894  
     axis -90 1.13533e-015 -20   XYZ
    dof rx rz
    limits (-45.0 90.0)
           (-20.0 70.0)
  end
  begin
     id 10 
     name rtoes
     direction -1.53557e-011 -4.21759e-011 1   
     length 0.787585   
     axis -90 1.13533e-015 -20   XYZ
    dof rx
    limits (-90.0 20.0)
  end
  begin
     id 11 
     name lowerback
     direction -0.0140249 0.999561 0.0260968   
     length 2.16963   
     axis 0 -0 0   XYZ
    dof rx ry rz
    limits (-20.0 45.0)
           (-30.0 30.0)
           (-30.0 30.0)
  end
  begin
     id 12 
     name upperback
     direction 0.00860018 0.999959 -0.002711   
     length 2.1726   
     axis 0 -0 0   XYZ
    dof rx ry rz
    limits (-20.0 45.0)
           (-30.0 30.0)
           (-30.0 30.0)
  end
  begin
     id 13 
     name thorax
     direction 0.015211 0.999782 -0.0143191   
     length 2.17061   
     axis 0 -0 0   XYZ
    dof rx ry rz
    limits (-20.0 45.0)
           (-30.0 30.0)
           (-30.0 30.0)
  end
  begin
     id 14 
     name lowerneck
     direction -0.0140143 0.999447 0.030145   
     length 2.26749   
     axis 0 -0 0   XYZ
    dof rx ry rz
    limits (-20.0 45.0)
           (-30.0 30.0)
           (-30.0 30.0)
  end
  begin
     id 15 
     name upperneck
     direction 0.118062 0.961438 -0.248392   
     length 2.22728   
     axis 0 -0 0   XYZ
    dof rx ry rz
    limits (-20.0 45.0)
           (-30.0 30.0)
           (-30.0 30.0)
  end
  begin
     id 16
     name head
     direction 0.0431885 0.9954 -0.085514  
     length 2.28786  
     axis 0 -0 0   XYZ
    dof rx ry rz
    limits (-20.0 45.0)
           (-30.0 30.0)
           (-30.0 30.0)
  end
  begin
     id 17 
     name lclavicle
     direction 0.912126 0.409548 0.0172323  
     length 4.31571  
     axis 0 -0 0   XYZ
    dof ry rz
    limits (-20.0 10.0)
           (0.0 20.0)
  end
  begin
     id 18 
     name lhumerus
     direction 1 -4.48977e-011 1.93091e-027   
     length 5.13658   
     axis 180 -30 -90   XYZ
    dof rx ry rz
    limits (-60.0 90.0)
           (-90.0 90.0)
           (-90.0 90.0)
  end
  begin
     id 19
     name lradius
     direction 1 -4.48916e-011 6.84018e-027   
     length 3.22473   
     axis 180 -30 -90   XYZ
    dof rx
    limits (-10.0 170.0)
  end
  begin
     id 20
     name lwrist
     direction 1 -4.48987e-011 7.01981e-027   
     length 1.61236   
     axis -4.37994e-015 90 90   XYZ
    dof ry
    limits (-180.0 0.0)
 end
  begin
     id 21 
     name lhand
     direction 1 -4.49037e-011 1.40335e-026   
     length 0.936406   
     axis -8.96029e-015 90 90   XYZ
    dof rx rz
    limits (-90.0 90.0)
           (-45.0 45.0)
  end
  begin
     id 22 
     name lfingers
     direction 1 -4.48886e-011 2.8104e-026   
     length 0.754955   
     axis -1.79203e-014 90 90   XYZ
    dof rx
    limits (0.0 90.0)
  end
  begin
     id 23
     name lthumb
     direction 0.707107 -6.34937e-011 0.707107   
     length 1.08397   
     axis -90 45 -4.48555e-014   XYZ
    dof rx rz
    limits (-45.0 45.0)
           (-45.0 45.0)
  end
  begin
     id 24 
     name rclavicle
     direction -0.947962 0.317997 0.0156638   
     length 4.86918  
     axis 0 -0 0   XYZ 
    dof ry rz
    limits (-10.0 20.0)
           (-20.0 0.0)
  end
  begin
     id 25 
     name rhumerus
     direction -1 -4.48951e-011 2.80534e-018  
     length 5.60911   
     axis 180 30 90   XYZ
    dof rx ry rz
    limits (-90.0 60.0)
           (-90.0 90.0)
           (-90.0 90.0)
  end
  begin
     id 26 
     name rradius
     direction -1 -4.4898e-011 2.11315e-027   
     length 3.38704   
     axis 180 30 90   XYZ
    dof rx
    limits (-10.0 170.0)
  end
  begin
     id 27 
     name rwrist
     direction -1 -4.48933e-011 7.02314e-027   
     length 1.69352   
     axis -4.37994e-015 -90 -90   XYZ
    dof ry
    limits (-180.0 0.0)
  end
  begin
     id 28
     name rhand
     direction -1 -4.48937e-011 1.40458e-026   
     length 0.755878   
     axis -8.96029e-015 -90 -90   XYZ
    dof rx rz
    limits (-90.0 90.0)
           (-45.0 45.0)
  end
  begin
     id 29
     name rfingers
     direction -1 -4.4901e-011 2.80737e-026   
     length 0.609409   
     axis -1.79203e-014 -90 -90   XYZ
    dof rx
    limits (0.0 90.0)
  end
  begin
     id 30
     name rthumb
     direction -0.707107 -6.34968e-011 0.707107   
     length 0.874992   
     axis -90 -45 4.48555e-014   XYZ
    dof rx rz
    limits (-45.0 45.0)
           (-45.0 45.0)
  end
:hierarchy
  begin
    root lhipjoint rhipjoint lowerback
    lhipjoint lfemur
    lfemur ltibia
    ltibia lfoot
    lfoot ltoes
    rhipjoint rfemur
    rfemur rtibia
    rtibia rfoot
    rfoot rtoes
    lowerback upperback
    upperback thorax
    thorax lowerneck lclavicle rclavicle
    lowerneck upperneck
    upperneck head
    lclavicle lhumerus
    lhumerus lradius
    lradius lwrist
    lwrist lhand lthumb
    lhand lfingers
    rclavicle rhumerus
    rhumerus rradius
    rradius rwrist
    rwrist rhand rthumb
    rhand rfingers
  end

#!OML:ASF C:\ViconDB\ViconDB\414\Spring2016\041811\Spring2016.ASF
:FULLY-SPECIFIED
:DEGREES
31
root 9.92522 18.1612 4.02403 -176.456 -0.714939 -178.702
lowerback -5.09163 1.13012 -2.05589
upperback -0.030213 1.61369 0.0132892
thorax 2.76576 0.77022 1.28507
lowerneck -8.13594 -3.89478 -11.003
upperneck 15.2528 -7.64356 17.1072
head 7.03532 -3.46675 6.76162
rclavicle 1.19395e-014 1.98785e-015
rhumerus -46.3057 -19.8114 -79.9584
rradius 38.9852
rwrist 37.4653
rhand -32.5249 -13.1325
rfingers 7.12502
rthumb -5.75552 -43.0343
lclavicle 1.19395e-014 1.98785e-015
lhumerus -40.5495 -1.49036 86.0123
lradius 29.119
lwrist -33.7886
lhand -26.4605 14.0378
lfingers 7.12502
lthumb 0.100962 44.0175
rfemur -4.71322 -13.9847 17.9924
rtibia 20.7293
rfoot -169.938 5.02735
rtoes -17.4938
lfemur -7.72702 -8.91616 -12.904
ltibia 25.5603
lfoot -25.1615 14.7252
ltoes -11.2531
32
root 9.92458 18.162 4.02543 -176.472 -0.687358 -178.698
lowerback -5.04291 1.12947 -2.02395
upperback -0.0185712 1.61078 -0.00132074
thorax 2.75183 0.769555 1.25093
lowerneck -8.04206 -3.93199 -11.1474
upperneck 15.0482 -7.67356 17.256
head 6.96973 -3.48545 6.83281
rclavicle 2.83703e-014 -6.36111e-015
rhumerus -46.1249 -19.8428 -80.0657
rradius 38.6898
rwrist 37.7571
rhand -32.611 -13.315
rfingers 7.12502
rthumb -5.83869 -43.2146
lclavicle 2.83703e-014 -6.36111e-015
lhumerus -40.5463 -1.5365 86.0301
lradius 29.1876
lwrist -33.7427
lhand -26.4194 14.1095
lfingers 7.12502
lthumb 0.140674 44.0892
rfemur -4.68891 -14.0535 17.9808
rtibia 20.6861
rfoot -169.854 5.07152
rtoes -17.5433
lfemur -7.76961 -8.69609 -12.8928
ltibia 25.6213
lfoot -25.0784 14.6138
ltoes -11.3433
33
root 9.92393 18.1592 4.02712 -176.474 -0.647756 -178.708
lowerback -5.00496 1.13281 -2.01908
upperback -0.0146106 1.6147 -0.0172013
thorax 2.73507 0.771902 1.23129
lowerneck -8.05307 -3.96687 -11.1879
upperneck 14.9887 -7.68465 17.2053
head 6.95451 -3.49212 6.81981
rclavicle -1.98723e-014 -1.23246e-014
rhumerus -45.952 -19.8476 -80.1681
rradius 38.4289
rwrist 37.8636
rhand -32.5489 -13.3211
rfingers 7.12502
rthumb -5.77867 -43.2223
lclavicle -1.98723e-014 -1.23246e-014
lhumerus -40.5509 -1.53531 86.0402
lradius 29.2309
lwrist -33.6481
lhand -26.4139 14.0912
lfingers 7.12502
lthumb 0.14594 44.0709
rfemur -4.65149 -14.0583 17.9515
rtibia 20.629
rfoot -169.802 5.13617
rtoes -17.362
lfemur -7.85309 -8.38855 -12.8972
ltibia 25.7007
lfoot -24.9001 14.5108
ltoes -11.5166
34
root 9.92366 18.1579 4.02866 -176.474 -0.624555 -178.737
lowerback -4.97011 1.12174 -2.03546
upperback 0.000736663 1.60114 -0.037942
thorax 2.73197 0.765095 1.21757
lowerneck -8.06637 -3.98762 -11.2414
upperneck 14.8927 -7.68456 17.2272
head 6.92987 -3.49108 6.83473
rclavicle -2.49102e-015 1.19271e-015
rhumerus -45.7529 -19.8562 -80.2594
rradius 38.0733
rwrist 38.2659
rhand -32.5179 -13.2312
rfingers 7.12502
rthumb -5.74881 -43.1332
lclavicle -2.49102e-015 1.19271e-015
lhumerus -40.4834 -1.39035 85.9653
lradius 29.1504
lwrist -33.7489
lhand -26.436 13.9933
lfingers 7.12502
lthumb 0.124631 43.9731
rfemur -4.63032 -14.1176 17.9022
rtibia 20.5917
rfoot -169.717 5.22109
rtoes -17.2771
lfemur -7.92882 -8.15532 -12.9173
ltibia 25.7727
lfoot -24.7815 14.3979
ltoes -11.5858
35
root 9.92161 18.158 4.03063 -176.46 -0.580813 -178.779
lowerback -4.93773 1.11992 -2.03131
upperback 0.00692468 1.59891 -0.0815367
thorax 2.72162 0.764339 1.16956
lowerneck -8.05928 -3.98919 -11.2618
upperneck 14.7775 -7.66198 17.2496
head 6.89065 -3.47908 6.84603
rclavicle 2.13321e-014 -1.59028e-015
rhumerus -45.4749 -19.8864 -80.467
rradius 37.8936
rwrist 37.4984
rhand -32.1235 -13.177
rfingers 7.12502
rthumb -5.36797 -43.089
lclavicle 2.13321e-014 -1.59028e-015
lhumerus -40.4438 -1.40662 85.943
lradius 29.1215
lwrist -33.7361
lhand -26.4253 14.0017
lfingers 7.12502
lthumb 0.135004 43.9814
rfemur -4.62533 -14.2153 17.8275
rtibia 20.535
rfoot -169.568 5.32182
rtoes -17.2096
lfemur -8.02521 -8.01995 -12.9695
ltibia 25.8643
lfoot -24.7348 14.3763
ltoes -11.5565
36
root 9.91928 18.1585 4.03196 -176.445 -0.54278 -178.861
lowerback -4.90061 1.1162 -2.07296
upperback 0.0108493 1.59646 -0.126793
thorax 2.70509 0.762881 1.14535
lowerneck -8.05145 -3.99117 -11.2933
upperneck 14.6639 -7.63123 17.2478
head 6.85003 -3.46419 6.85185
rclavicle -1.46728e-014 4.37326e-015
rhumerus -45.3124 -19.9637 -80.5117
rradius 37.4155
rwrist 38.5928
rhand -32.3831 -13.1652
rfingers 7.12502
rthumb -5.61863 -43.0707
lclavicle -1.46728e-014 4.37326e-015
lhumerus -40.4693 -1.49278 85.9593
lradius 29.1534
lwrist -33.6322
lhand -26.4187 14.113
lfingers 7.12502
lthumb 0.141303 44.0927
rfemur -4.62701 -14.2942 17.7066
rtibia 20.5018
rfoot -169.439 5.4224
rtoes -17.0385
lfemur -8.12962 -7.78208 -13.0547
ltibia 25.9415
lfoot -24.6067 14.2837
ltoes -11.6385
37
root 9.91614 18.159 4.0341 -176.422 -0.516068 -178.926
lowerback -4.86099 1.11375 -2.09535
upperback 0.0164012 1.59462 -0.174684
thorax 2.68941 0.761978 1.10766
lowerneck -8.06763 -3.98896 -11.2948
upperneck 14.5612 -7.60136 17.251
head 6.81652 -3.44712 6.85388
rclavicle 9.55409e-015 1.15295e-014
rhumerus -45.1224 -19.9958 -80.637
rradius 36.9851
rwrist 39.3071
rhand -32.6179 -13.3431
rfingers 7.12502
rthumb -5.84531 -43.2424
lclavicle 9.55409e-015 1.15295e-014
lhumerus -40.4526 -1.50698 85.9405
lradius 29.1272
lwrist -33.6289
lhand -26.4566 14.1356
lfingers 7.12502
lthumb 0.10477 44.1153
rfemur -4.63866 -14.3407 17.6057
rtibia 20.473
rfoot -169.355 5.52044
rtoes -16.9055
lfemur -8.2548 -7.36197 -13.0981
ltibia 26.0214
lfoot -24.4364 13.9941
ltoes -11.6914
38
root 9.91254 18.1588 4.0359 -176.369 -0.498876 -179.014
lowerback -4.83659 1.08194 -2.19102
upperback -0.0062628 1.5559 -0.166535
thorax 2.65093 0.74179 1.16607
lowerneck -8.07318 -3.97236 -11.3601
upperneck 14.5093 -7.52561 17.1618
head 6.78827 -3.41388 6.84136
rclavicle -1.43125e-014 2.18663e-014
rhumerus -44.8068 -19.6674 -80.9645
rradius 36.8816
rwrist 37.8824
rhand -32.1537 -13.5495
rfingers 7.12502
rthumb -5.39713 -43.4607
lclavicle -1.43125e-014 2.18663e-014
lhumerus -40.4659 -1.32313 85.9536
lradius 29.0577
lwrist -33.7527
lhand -26.512 14.092
lfingers 7.12502
lthumb 0.0511941 44.0718
rfemur -4.68057 -14.4328 17.4835
rtibia 20.4383
rfoot -169.229 5.61162
rtoes -16.744
lfemur -8.40664 -6.98844 -13.171
ltibia 26.1078
lfoot -24.3094 13.7164
ltoes -11.6708
39
root 9.90766 18.1584 4.03783 -176.305 -0.49816 -179.109
lowerback -4.83334 1.09149 -2.17966
upperback -0.00788571 1.56971 -0.285041
thorax 2.65057 0.748903 1.03868
lowerneck -8.12872 -3.97632 -11.235
upperneck 14.4599 -7.52495 17.1188
head 6.77697 -3.40627 6.80221
rclavicle 3.49116e-015 -1.07344e-014
rhumerus -44.6605 -19.9798 -81.0205
rradius 36.3526
rwrist 39.2472
rhand -32.543 -13.6728
rfingers 7.12502
rthumb -5.77299 -43.5741
lclavicle 3.49116e-015 -1.07344e-014
lhumerus -40.511 -1.35029 85.8453
lradius 29.1103
lwrist -33.8259
lhand -26.4463 14.1515
lfingers 7.12502
lthumb 0.114696 44.1312
rfemur -4.71176 -14.5484 17.3498
rtibia 20.3909
rfoot -169.14 5.74596
rtoes -16.3645
lfemur -8.57699 -6.67767 -13.2547
ltibia 26.2083
lfoot -24.1887 13.4465
ltoes -11.689
